# xmcd CD database file
#
# Track frame offsets:
#	150
#	18057
#	35021
#	50870
#	69965
#	82574
#	96623
#	110450
#	122269
#	135186
#	151193
#	159591
#
# Disc length: 2279 seconds
#
# Revision: 0
# Processed by: cddbd v1.5.2PL0 Copyright (c) Steve Scherf et al.
# Submitted via: CDex 1.70beta2
#
DISCID=8708e50c
DTITLE=Roy Clark - Greatest Hits Disc 3
DYEAR=1900
DGENRE=Country
TTITLE0=For the good times
TTITLE1=Georgia on my mind
TTITLE2=Me and Bobby McGee
TTITLE3=Sunday morning coming down
TTITLE4=Before the next teardrop falls
TTITLE5=Daddy don't you walk so fast
TTITLE6=Unchained melody
TTITLE7=Most beautiful girl
TTITLE8=It was almost like a song
TTITLE9=Make the world go away
TTITLE10=Green green grass at home
TTITLE11=Rollin' in my sweet baby's arms
EXTD=
EXTT0=
EXTT1=
EXTT2=
EXTT3=
EXTT4=
EXTT5=
EXTT6=
EXTT7=
EXTT8=
EXTT9=
EXTT10=
EXTT11=
PLAYORDER=
